HIERARCHY
ROOT pelvis
{
  OFFSET 0 100 0
  CHANNELS 6 Xposition Yposition Zposition Zrotation Xrotation Yrotation
  JOINT pelvis_right_femur
  {
    OFFSET -10.78128 -3.44521 -0.5502486
    CHANNELS 3 Zrotation Xrotation Yrotation
    JOINT right_femur_tibia
    {
      OFFSET -0.8047443 -44.0398 -0.1307829
      CHANNELS 3 Zrotation Xrotation Yrotation
      JOINT right_tibia_foot
      {
        OFFSET 3.006224 -47.83518 -5
        CHANNELS 3 Zrotation Xrotation Yrotation
        End Site
        {
          OFFSET 0 -5 15
        }
      }
    }
  }
  JOINT pelvis_left_femur
  {
    OFFSET 10.78128 -3.44521 -0.5502486
    CHANNELS 3 Zrotation Xrotation Yrotation
    JOINT left_femur_tibia
    {
      OFFSET 0.8047443 -44.0398 -0.1307829
      CHANNELS 3 Zrotation Xrotation Yrotation
      JOINT left_tibia_foot
      {
        OFFSET -4.370144 -48.10324 -4.275266
        CHANNELS 3 Zrotation Xrotation Yrotation
        End Site
        {
          OFFSET 0 -5 15
        }
      }
    }
  }
  JOINT pelvis_spine1
  {
    OFFSET 0 6.468898 -3.129235
    CHANNELS 3 Zrotation Xrotation Yrotation
    JOINT spine1
    {
      OFFSET 0 23.15396 4.99043
      CHANNELS 3 Zrotation Xrotation Yrotation
      JOINT spine2
      {
        OFFSET 0 20.79997 -5.064912
        CHANNELS 3 Zrotation Xrotation Yrotation
        JOINT neck
        {
          OFFSET 0 14.38658 9.616178
          CHANNELS 3 Zrotation Xrotation Yrotation
          End Site
          {
            OFFSET 0 20 0
          }
        }
      }
      JOINT right_manubrium
      {
        OFFSET -5.722621 16.35077 3.967754
        CHANNELS 3 Zrotation Xrotation Yrotation
        JOINT right_clavicle
        {
          OFFSET -13.16364 1.694482 -4.693211
          CHANNELS 3 Zrotation Xrotation Yrotation
          JOINT right_humerus
          {
            OFFSET -28.5034 -0.3100689 -2.792744
            CHANNELS 3 Zrotation Xrotation Yrotation
            JOINT right_radius
            {
              OFFSET -25.15693 0.02248979 -1.271978
              CHANNELS 3 Zrotation Xrotation Yrotation
              End Site
              {
                OFFSET -15 0 0
              }
            }
          }
        }
      }
      JOINT left_manubrium
      {
        OFFSET 5.722621 16.35077 3.967754
        CHANNELS 3 Zrotation Xrotation Yrotation
        JOINT left_clavicle
        {
          OFFSET 13.16364 1.694482 -4.693211
          CHANNELS 3 Zrotation Xrotation Yrotation
          JOINT left_humerus
          {
            OFFSET 29.39168 -1.063119 -2.237045
            CHANNELS 3 Zrotation Xrotation Yrotation
            JOINT left_radius
            {
              OFFSET 24.59957 -0.9528479 0.9047498
              CHANNELS 3 Zrotation Xrotation Yrotation
              End Site
              {
                OFFSET 15 -0 -0
              }
            }
          }
        }
      }
    }
  }
}
MOTION
Frames: 19
Frame Time: 0.0416666666667
-1029.929 104.956 -579.4598 9.007199 4.28353 109.5954 1.603017 16.84923 1.725337 -0 25.86643 -0 -7.165829 -11.43085 -2.761722 -1.673187 -17.80834 -9.153067 -0 20.34311 -0 -3.170935 -7.886731 23.11769 -2.53229 -0.3709197 8.750602 -0.462986 10.85402 -4.028891 0.9843814 21.09077 5.362278 2.560791 -19.61789 5.708185 2.231801 -22.55034 12.1135 80.53737 27.23816 -6.170942 -0 0 23.25835 -24.84412 10.11665 16.31271 3.32383 -16.22897 -2.662448 -91.71229 21.12165 26.25246 0 0 -11.68388 0.465847 4.236333 13.01745
-1024.5 104.9531 -582.2088 9.043444 4.205963 109.1058 1.603017 16.84923 1.725337 -0 25.86643 -0 -7.165829 -11.43085 -2.761722 -1.673187 -17.80834 -9.153067 -0 20.34311 -0 -3.170935 -7.886731 23.11769 -2.53229 -0.3709197 8.750602 -0.462986 10.85402 -4.028891 0.9843814 21.09077 5.362278 2.560791 -19.61789 5.708185 2.231801 -22.55034 12.1135 80.53737 27.23816 -6.170942 -0 0 23.25835 -24.84412 10.11665 16.31271 3.32383 -16.22897 -2.662448 -91.71229 21.12165 26.25246 0 0 -11.68388 0.465847 4.236333 13.01745
-1019.046 104.9502 -584.9108 9.079019 4.12809 108.6162 1.603017 16.84923 1.725337 -0 25.86643 -0 -7.165829 -11.43085 -2.761722 -1.673187 -17.80834 -9.153067 -0 20.34311 -0 -3.170935 -7.886731 23.11769 -2.53229 -0.3709197 8.750602 -0.462986 10.85402 -4.028891 0.9843814 21.09077 5.362278 2.560791 -19.61789 5.708185 2.231801 -22.55034 12.1135 80.53737 27.23816 -6.170942 -0 0 23.25835 -24.84412 10.11665 16.31271 3.32383 -16.22897 -2.662448 -91.71229 21.12165 26.25246 0 0 -11.68388 0.465847 4.236333 13.01745
-1013.57 104.9473 -587.5656 9.113923 4.049917 108.1267 1.603017 16.84923 1.725337 -0 25.86643 -0 -7.165829 -11.43085 -2.761722 -1.673187 -17.80834 -9.153067 -0 20.34311 -0 -3.170935 -7.886731 23.11769 -2.53229 -0.3709197 8.750602 -0.462986 10.85402 -4.028891 0.9843814 21.09077 5.362278 2.560791 -19.61789 5.708185 2.231801 -22.55034 12.1135 80.53737 27.23816 -6.170942 -0 0 23.25835 -24.84412 10.11665 16.31271 3.32383 -16.22897 -2.662448 -91.71229 21.12165 26.25246 0 0 -11.68388 0.465847 4.236333 13.01745
-1008.071 104.9444 -590.1731 9.148152 3.971449 107.6373 1.603017 16.84923 1.725337 -0 25.86643 -0 -7.165829 -11.43085 -2.761722 -1.673187 -17.80834 -9.153067 -0 20.34311 -0 -3.170935 -7.886731 23.11769 -2.53229 -0.3709197 8.750602 -0.462986 10.85402 -4.028891 0.9843814 21.09077 5.362278 2.560791 -19.61789 5.708185 2.231801 -22.55034 12.1135 80.53737 27.23816 -6.170942 -0 0 23.25835 -24.84412 10.11665 16.31271 3.32383 -16.22897 -2.662448 -91.71229 21.12165 26.25246 0 0 -11.68388 0.465847 4.236333 13.01745
-1002.549 104.9415 -592.733 9.181706 3.892693 107.148 1.603017 16.84923 1.725337 -0 25.86643 -0 -7.165829 -11.43085 -2.761722 -1.673187 -17.80834 -9.153067 -0 20.34311 -0 -3.170935 -7.886731 23.11769 -2.53229 -0.3709197 8.750602 -0.462986 10.85402 -4.028891 0.9843814 21.09077 5.362278 2.560791 -19.61789 5.708185 2.231801 -22.55034 12.1135 80.53737 27.23816 -6.170942 -0 0 23.25835 -24.84412 10.11665 16.31271 3.32383 -16.22897 -2.662448 -91.71229 21.12165 26.25246 0 0 -11.68388 0.465847 4.236333 13.01745
-997.0061 104.9386 -595.2452 9.21458 3.813653 106.6588 1.603017 16.84923 1.725337 -0 25.86643 -0 -7.165829 -11.43085 -2.761722 -1.673187 -17.80834 -9.153067 -0 20.34311 -0 -3.170935 -7.886731 23.11769 -2.53229 -0.3709197 8.750602 -0.462986 10.85402 -4.028891 0.9843814 21.09077 5.362278 2.560791 -19.61789 5.708185 2.231801 -22.55034 12.1135 80.53737 27.23816 -6.170942 -0 0 23.25835 -24.84412 10.11665 16.31271 3.32383 -16.22897 -2.662448 -91.71229 21.12165 26.25246 0 0 -11.68388 0.465847 4.236333 13.01745
-991.4413 104.9357 -597.7095 9.246775 3.734336 106.1697 1.603017 16.84923 1.725337 -0 25.86643 -0 -7.165829 -11.43085 -2.761722 -1.673187 -17.80834 -9.153067 -0 20.34311 -0 -3.170935 -7.886731 23.11769 -2.53229 -0.3709197 8.750602 -0.462986 10.85402 -4.028891 0.9843814 21.09077 5.362278 2.560791 -19.61789 5.708185 2.231801 -22.55034 12.1135 80.53737 27.23816 -6.170942 -0 0 23.25835 -24.84412 10.11665 16.31271 3.32383 -16.22897 -2.662448 -91.71229 21.12165 26.25246 0 0 -11.68388 0.465847 4.236333 13.01745
-985.8555 104.9328 -600.1256 9.278287 3.654748 105.6807 1.603017 16.84923 1.725337 -0 25.86643 -0 -7.165829 -11.43085 -2.761722 -1.673187 -17.80834 -9.153067 -0 20.34311 -0 -3.170935 -7.886731 23.11769 -2.53229 -0.3709197 8.750602 -0.462986 10.85402 -4.028891 0.9843814 21.09077 5.362278 2.560791 -19.61789 5.708185 2.231801 -22.55034 12.1135 80.53737 27.23816 -6.170942 -0 0 23.25835 -24.84412 10.11665 16.31271 3.32383 -16.22897 -2.662448 -91.71229 21.12165 26.25246 0 0 -11.68388 0.465847 4.236333 13.01745
-980.249 104.9299 -602.4934 9.309114 3.574895 105.1917 1.603017 16.84923 1.725337 -0 25.86643 -0 -7.165829 -11.43085 -2.761722 -1.673187 -17.80834 -9.153067 -0 20.34311 -0 -3.170935 -7.886731 23.11769 -2.53229 -0.3709197 8.750602 -0.462986 10.85402 -4.028891 0.9843814 21.09077 5.362278 2.560791 -19.61789 5.708185 2.231801 -22.55034 12.1135 80.53737 27.23816 -6.170942 -0 0 23.25835 -24.84412 10.11665 16.31271 3.32383 -16.22897 -2.662448 -91.71229 21.12165 26.25246 0 0 -11.68388 0.465847 4.236333 13.01745
-974.6223 104.927 -604.8128 9.339255 3.494782 104.7029 1.603017 16.84923 1.725337 -0 25.86643 -0 -7.165829 -11.43085 -2.761722 -1.673187 -17.80834 -9.153067 -0 20.34311 -0 -3.170935 -7.886731 23.11769 -2.53229 -0.3709197 8.750602 -0.462986 10.85402 -4.028891 0.9843814 21.09077 5.362278 2.560791 -19.61789 5.708185 2.231801 -22.55034 12.1135 80.53737 27.23816 -6.170942 -0 0 23.25835 -24.84412 10.11665 16.31271 3.32383 -16.22897 -2.662448 -91.71229 21.12165 26.25246 0 0 -11.68388 0.465847 4.236333 13.01745
-968.9758 104.9241 -607.0835 9.368707 3.414415 104.2141 1.603017 16.84923 1.725337 -0 25.86643 -0 -7.165829 -11.43085 -2.761722 -1.673187 -17.80834 -9.153067 -0 20.34311 -0 -3.170935 -7.886731 23.11769 -2.53229 -0.3709197 8.750602 -0.462986 10.85402 -4.028891 0.9843814 21.09077 5.362278 2.560791 -19.61789 5.708185 2.231801 -22.55034 12.1135 80.53737 27.23816 -6.170942 -0 0 23.25835 -24.84412 10.11665 16.31271 3.32383 -16.22897 -2.662448 -91.71229 21.12165 26.25246 0 0 -11.68388 0.465847 4.236333 13.01745
-963.3099 104.9212 -609.3054 9.39747 3.333801 103.7254 1.603017 16.84923 1.725337 -0 25.86643 -0 -7.165829 -11.43085 -2.761722 -1.673187 -17.80834 -9.153067 -0 20.34311 -0 -3.170935 -7.886731 23.11769 -2.53229 -0.3709197 8.750602 -0.462986 10.85402 -4.028891 0.9843814 21.09077 5.362278 2.560791 -19.61789 5.708185 2.231801 -22.55034 12.1135 80.53737 27.23816 -6.170942 -0 0 23.25835 -24.84412 10.11665 16.31271 3.32383 -16.22897 -2.662448 -91.71229 21.12165 26.25246 0 0 -11.68388 0.465847 4.236333 13.01745
-957.6251 104.9183 -611.4784 9.42554 3.252944 103.2368 1.603017 16.84923 1.725337 -0 25.86643 -0 -7.165829 -11.43085 -2.761722 -1.673187 -17.80834 -9.153067 -0 20.34311 -0 -3.170935 -7.886731 23.11769 -2.53229 -0.3709197 8.750602 -0.462986 10.85402 -4.028891 0.9843814 21.09077 5.362278 2.560791 -19.61789 5.708185 2.231801 -22.55034 12.1135 80.53737 27.23816 -6.170942 -0 0 23.25835 -24.84412 10.11665 16.31271 3.32383 -16.22897 -2.662448 -91.71229 21.12165 26.25246 0 0 -11.68388 0.465847 4.236333 13.01745
-951.9217 104.9155 -613.6022 9.452916 3.171851 102.7482 1.603017 16.84923 1.725337 -0 25.86643 -0 -7.165829 -11.43085 -2.761722 -1.673187 -17.80834 -9.153067 -0 20.34311 -0 -3.170935 -7.886731 23.11769 -2.53229 -0.3709197 8.750602 -0.462986 10.85402 -4.028891 0.9843814 21.09077 5.362278 2.560791 -19.61789 5.708185 2.231801 -22.55034 12.1135 80.53737 27.23816 -6.170942 -0 0 23.25835 -24.84412 10.11665 16.31271 3.32383 -16.22897 -2.662448 -91.71229 21.12165 26.25246 0 0 -11.68388 0.465847 4.236333 13.01745
-946.2002 104.9126 -615.6767 9.479597 3.090529 102.2598 1.603017 16.84923 1.725337 -0 25.86643 -0 -7.165829 -11.43085 -2.761722 -1.673187 -17.80834 -9.153067 -0 20.34311 -0 -3.170935 -7.886731 23.11769 -2.53229 -0.3709197 8.750602 -0.462986 10.85402 -4.028891 0.9843814 21.09077 5.362278 2.560791 -19.61789 5.708185 2.231801 -22.55034 12.1135 80.53737 27.23816 -6.170942 -0 0 23.25835 -24.84412 10.11665 16.31271 3.32383 -16.22897 -2.662448 -91.71229 21.12165 26.25246 0 0 -11.68388 0.465847 4.236333 13.01745
-940.461 104.9097 -617.7017 9.50558 3.008982 101.7714 1.603017 16.84923 1.725337 -0 25.86643 -0 -7.165829 -11.43085 -2.761722 -1.673187 -17.80834 -9.153067 -0 20.34311 -0 -3.170935 -7.886731 23.11769 -2.53229 -0.3709197 8.750602 -0.462986 10.85402 -4.028891 0.9843814 21.09077 5.362278 2.560791 -19.61789 5.708185 2.231801 -22.55034 12.1135 80.53737 27.23816 -6.170942 -0 0 23.25835 -24.84412 10.11665 16.31271 3.32383 -16.22897 -2.662448 -91.71229 21.12165 26.25246 0 0 -11.68388 0.465847 4.236333 13.01745
-934.7045 104.9068 -619.6771 9.530865 2.927217 101.2831 1.603017 16.84923 1.725337 -0 25.86643 -0 -7.165829 -11.43085 -2.761722 -1.673187 -17.80834 -9.153067 -0 20.34311 -0 -3.170935 -7.886731 23.11769 -2.53229 -0.3709197 8.750602 -0.462986 10.85402 -4.028891 0.9843814 21.09077 5.362278 2.560791 -19.61789 5.708185 2.231801 -22.55034 12.1135 80.53737 27.23816 -6.170942 -0 0 23.25835 -24.84412 10.11665 16.31271 3.32383 -16.22897 -2.662448 -91.71229 21.12165 26.25246 0 0 -11.68388 0.465847 4.236333 13.01745
-928.9312 104.9039 -621.6028 9.555449 2.84524 100.7949 1.603017 16.84923 1.725337 -0 25.86643 -0 -7.165829 -11.43085 -2.761722 -1.673187 -17.80834 -9.153067 -0 20.34311 -0 -3.170935 -7.886731 23.11769 -2.53229 -0.3709197 8.750602 -0.462986 10.85402 -4.028891 0.9843814 21.09077 5.362278 2.560791 -19.61789 5.708185 2.231801 -22.55034 12.1135 80.53737 27.23816 -6.170942 -0 0 23.25835 -24.84412 10.11665 16.31271 3.32383 -16.22897 -2.662448 -91.71229 21.12165 26.25246 0 0 -11.68388 0.465847 4.236333 13.01745
